<svg xmlns="http://www.w3.org/2000/svg" viewBox="0 0 1440 320"><path fill="#0099ff" fill-opacity="0.4" d="M0,128L20,122.7C40,117,80,107,120,133.3C160,160,200,224,240,261.3C280,299,320,309,360,293.3C400,277,440,235,480,224C520,213,560,235,600,256C640,277,680,299,720,272C760,245,800,171,840,133.3C880,96,920,96,960,96C1000,96,1040,96,1080,128C1120,160,1160,224,1200,213.3C1240,203,1280,117,1320,85.3C1360,53,1400,75,1420,85.3L1440,96L1440,320L1420,320C1400,320,1360,320,1320,320C1280,320,1240,320,1200,320C1160,320,1120,320,1080,320C1040,320,1000,320,960,320C920,320,880,320,840,320C800,320,760,320,720,320C680,320,640,320,600,320C560,320,520,320,480,320C440,320,400,320,360,320C320,320,280,320,240,320C200,320,160,320,120,320C80,320,40,320,20,320L0,320Z"></path></svg>